<svg id="Layer_1" data-name="Layer 1" xmlns="http://www.w3.org/2000/svg" viewBox="0 0 360 202.5">
<path class="cls-1" d="M8,67.5a8,8,0,0,0-8,8v89a8,8,0,0,0,16,0v-89A8,8,0,0,0,8,67.5Z"/>
<path class="cls-1" d="M31,53.5a8,8,0,0,0-8,8v116a8,8,0,0,0,16,0V61.5A8,8,0,0,0,31,53.5Z"/>
<path class="cls-1" d="M352,67.5a8,8,0,0,0-8,8v89a8,8,0,0,0,16,0v-89A8,8,0,0,0,352,67.5Z"/>
<path class="cls-1" d="M329,53.5a8,8,0,0,0-8,8v116a8,8,0,0,0,16,0V61.5A8,8,0,0,0,329,53.5Z"/>
<path class="cls-1" d="M306,33a8,8,0,0,0-8,8V192.2c-12.7-.3-39.4-3.5-62-23.7-11.9-10.7-21.2-24.5-27.7-41.5h81.2V107h-87v1.2c-3.7-15.1-5.7-32-6-50.9l11.2.8A9.69,9.69,0,0,0,215.6,42l-32-40.4h0l-.3-.3L183,1h0c-.1-.1-.2-.1-.3-.2s-.3-.2-.4-.3-.3-.1-.4-.2-.3-.1-.4-.2-.3-.1-.4-.1-.3-.1-.4-.1h-.8a.6.6,0,0,0-.4.1.6.6,0,0,0-.4.1.76.76,0,0,0-.4.2c-.1.1-.3.1-.4.2a1.38,1.38,0,0,0-.4.3c-.1.1-.2.1-.3.2h0l-.3.3-.3.3h0L145,42a9.59,9.59,0,0,0-1.5,10.6,9.73,9.73,0,0,0,9.4,5.5l11.2-.8c-.3,18.8-2.3,35.8-6,50.9V107h-87v20h81.2c-6.5,17-15.8,30.8-27.7,41.5-22.5,20.2-49.2,23.4-62,23.7V41a8,8,0,0,0-16,0V193a8.06,8.06,0,0,0,7.4,8,93.83,93.83,0,0,0,17.2,1.5c15.8,0,39.6-3.5,60.4-20.8,29.3-24.3,43.3-67.8,41.4-129.3a.6.6,0,0,0-.1-.4.6.6,0,0,0-.1-.4c0-.2-.1-.3-.1-.5s-.1-.3-.1-.4a.76.76,0,0,1-.2-.4c-.1-.1-.1-.2-.2-.4s-.2-.3-.3-.4-.2-.2-.2-.3h0c-.1-.1-.3-.2-.4-.3s-.2-.2-.3-.2-.3-.2-.5-.2-.2-.1-.3-.1-.5-.1-.7-.2h-.2a2.72,2.72,0,0,0-.9,0l-16,1.1a.62.62,0,0,1-.6-.4.53.53,0,0,1,.1-.7c.1-.1.2-.2.2-.3l28.6-36,28.6,36c.1.1.2.2.2.3a.53.53,0,0,1,.1.7.62.62,0,0,1-.6.4l-16-1.1h-.9a2.54,2.54,0,0,0-.7.2c-.1,0-.1,0-.2.1s-.3.1-.5.2-.2.1-.3.2a48867183456671.55,48867183456671.55,0,0,1-.8.6h0c-.1.1-.2.2-.2.3a1.38,1.38,0,0,0-.3.4c-.1.1-.1.2-.2.4a.76.76,0,0,0-.2.4.6.6,0,0,0-.1.4.9.9,0,0,0-.1.5.6.6,0,0,1-.1.4c0,.1-.1.3-.1.4-1.8,61.5,12.1,105,41.4,129.3,20.9,17.3,44.6,20.8,60.4,20.8a92.69,92.69,0,0,0,17.2-1.5,8.06,8.06,0,0,0,7.4-8V41C314,36.6,310.4,33,306,33Z"/>
</svg>